<svg width="13" height="13" viewBox="0 0 13 13" fill="none" xmlns="http://www.w3.org/2000/svg">
<path fill-rule="evenodd" clip-rule="evenodd" d="M1.67865 1.46979C1.97155 1.1769 2.44642 1.1769 2.73931 1.46979L11.7393 10.4696C12.0322 10.7625 12.0322 11.2374 11.7393 11.5303C11.4464 11.8232 10.9715 11.8232 10.6787 11.5303L1.67865 2.53043C1.38576 2.23754 1.38576 1.76268 1.67865 1.46979Z" fill="#000"/>
<path fill-rule="evenodd" clip-rule="evenodd" d="M11.7393 1.46979C11.4464 1.1769 10.9715 1.1769 10.6787 1.46979L1.67865 10.4696C1.38576 10.7625 1.38576 11.2374 1.67865 11.5303C1.97155 11.8232 2.44642 11.8232 2.73932 11.5303L11.7393 2.53043C12.0322 2.23754 12.0322 1.76268 11.7393 1.46979Z" fill="#000"/>
</svg>
