<svg width="20" height="20" viewBox="0 0 20 20" fill="none" xmlns="http://www.w3.org/2000/svg">
<path d="M10 13.3337C10.8841 13.3337 11.7319 12.9825 12.357 12.3573C12.9821 11.7322 13.3333 10.8844 13.3333 10.0003C13.3333 9.11627 12.9821 8.26842 12.357 7.6433C11.7319 7.01818 10.8841 6.66699 10 6.66699V13.3337Z" fill="#000"/>
<path fill-rule="evenodd" clip-rule="evenodd" d="M9.99984 1.66699C5.39734 1.66699 1.6665 5.39783 1.6665 10.0003C1.6665 14.6028 5.39734 18.3337 9.99984 18.3337C14.6023 18.3337 18.3332 14.6028 18.3332 10.0003C18.3332 5.39783 14.6023 1.66699 9.99984 1.66699ZM9.99984 3.33366V6.66699C9.11578 6.66699 8.26794 7.01818 7.64281 7.6433C7.01769 8.26842 6.6665 9.11627 6.6665 10.0003C6.6665 10.8844 7.01769 11.7322 7.64281 12.3573C8.26794 12.9825 9.11578 13.3337 9.99984 13.3337V16.667C11.7679 16.667 13.4636 15.9646 14.7139 14.7144C15.9641 13.4641 16.6665 11.7684 16.6665 10.0003C16.6665 8.23222 15.9641 6.53652 14.7139 5.28628C13.4636 4.03604 11.7679 3.33366 9.99984 3.33366Z" fill="#000"/>
</svg>
