<svg width="20" height="20" viewBox="0 0 20 20" fill="none" xmlns="http://www.w3.org/2000/svg">
<path fill-rule="evenodd" clip-rule="evenodd" d="M9.61258 2.93172C9.67462 2.79508 9.6986 2.64422 9.682 2.49507C9.66541 2.34592 9.60884 2.20403 9.51828 2.08436C9.42772 1.9647 9.30653 1.87171 9.1675 1.81521C9.02848 1.75872 8.87677 1.74081 8.72841 1.76339C4.72925 2.37672 1.66675 5.83006 1.66675 10.0001C1.66675 14.6026 5.39758 18.3334 10.0001 18.3334C14.6026 18.3334 18.3334 14.6026 18.3334 10.0001C18.3334 9.92227 18.3322 9.84448 18.3301 9.76672C18.3259 9.61648 18.2812 9.47016 18.2007 9.34325C18.1201 9.21635 18.0068 9.11359 17.8726 9.04586C17.7384 8.97813 17.5884 8.94796 17.4385 8.95852C17.2885 8.96909 17.1443 9.02001 17.0209 9.10589C16.1218 9.73204 15.042 10.0455 13.9474 9.99818C12.8528 9.95084 11.804 9.54526 10.9624 8.84382C10.1207 8.14238 9.53275 7.1839 9.28888 6.11576C9.04501 5.04761 9.15874 3.92894 9.61258 2.93172Z" fill="#000"/>
</svg>
