<svg width="17" height="16" viewBox="0 0 17 16" fill="none" xmlns="http://www.w3.org/2000/svg">
<path d="M8.92126 5.81838C8.34261 5.81838 7.78766 6.04825 7.37849 6.45742C6.96932 6.86659 6.73945 7.42155 6.73945 8.0002C6.73945 8.57885 6.96932 9.13381 7.37849 9.54298C7.78766 9.95215 8.34261 10.182 8.92126 10.182C9.49992 10.182 10.0549 9.95215 10.464 9.54298C10.8732 9.13381 11.1031 8.57885 11.1031 8.0002C11.1031 7.42155 10.8732 6.86659 10.464 6.45742C10.0549 6.04825 9.49992 5.81838 8.92126 5.81838ZM8.92126 11.6366C7.95684 11.6366 7.03192 11.2534 6.34997 10.5715C5.66802 9.88955 5.2849 8.96462 5.2849 8.0002C5.2849 7.03578 5.66802 6.11085 6.34997 5.4289C7.03192 4.74695 7.95684 4.36384 8.92126 4.36384C9.88569 4.36384 10.8106 4.74695 11.4926 5.4289C12.1745 6.11085 12.5576 7.03578 12.5576 8.0002C12.5576 8.96462 12.1745 9.88955 11.4926 10.5715C10.8106 11.2534 9.88569 11.6366 8.92126 11.6366ZM8.92126 2.54565C5.38672 2.54565 2.21581 4.72747 0.921265 8.0002C2.65945 12.422 7.64854 14.5893 12.0704 12.8511C14.2885 11.9784 16.0485 10.2257 16.9213 8.0002C15.6267 4.72747 12.4558 2.54565 8.92126 2.54565Z" fill="#000"/>

</svg>
