<svg width="17" height="17" viewBox="0 0 17 17" fill="none" xmlns="http://www.w3.org/2000/svg">
<path fill-rule="evenodd" clip-rule="evenodd" d="M16.0676 2.73325C16.393 2.40781 16.393 1.88017 16.0675 1.55474C15.7421 1.22931 15.2145 1.22931 14.889 1.55475L2.88929 13.5548C2.56386 13.8802 2.56387 14.4078 2.88931 14.7333C3.21475 15.0587 3.74239 15.0587 4.06782 14.7333L5.79405 13.007C7.7413 13.7669 9.96983 13.8225 12.0704 12.9968C14.2885 12.1241 16.0485 10.3714 16.9213 8.14591C16.3514 6.70519 15.4179 5.47589 14.2498 4.55106L16.0676 2.73325ZM12.2089 6.592L11.0643 7.73657C11.0899 7.87055 11.1031 8.00755 11.1031 8.14591C11.1031 8.72456 10.8732 9.27952 10.464 9.68869C10.0549 10.0979 9.49992 10.3277 8.92126 10.3277C8.78292 10.3277 8.64593 10.3146 8.51197 10.289L7.36742 11.4336C7.84872 11.661 8.37874 11.7823 8.92126 11.7823C9.88569 11.7823 10.8106 11.3992 11.4926 10.7172C12.1745 10.0353 12.5576 9.11033 12.5576 8.14591C12.5576 7.60336 12.4364 7.07332 12.2089 6.592ZM8.92126 2.69137C9.84824 2.69137 10.7502 2.84143 11.5999 3.12189L10.0369 4.68491C9.67967 4.56975 9.30357 4.50955 8.92126 4.50955C7.95684 4.50955 7.03192 4.89266 6.34997 5.57461C5.66802 6.25656 5.2849 7.18149 5.2849 8.14591C5.2849 8.52825 5.34511 8.90437 5.46029 9.26162L3.25464 11.4673C2.2537 10.5919 1.44174 9.46997 0.921265 8.14591C2.21581 4.87318 5.38672 2.69137 8.92126 2.69137ZM7.37849 6.60313C7.74736 6.23426 8.23471 6.01111 8.7511 5.97073L6.74608 7.97579C6.78645 7.45939 7.0096 6.97201 7.37849 6.60313Z" fill="#000"/>
</svg>
