<svg width="20" height="20" viewBox="0 0 20 20" fill="none" xmlns="http://www.w3.org/2000/svg">
<path d="M17.4958 9.75933L18.5374 9.72683C18.5324 9.56755 18.4909 9.41155 18.4161 9.27083C18.3414 9.1301 18.2353 9.00841 18.1061 8.91512C17.9769 8.82183 17.828 8.75942 17.6709 8.7327C17.5138 8.70598 17.3527 8.71566 17.1999 8.761L17.4958 9.75933ZM10.2399 2.50433L11.2391 2.80016C11.2844 2.64733 11.2941 2.48612 11.2673 2.32896C11.2406 2.1718 11.1781 2.02288 11.0847 1.89367C10.9913 1.76446 10.8695 1.65841 10.7287 1.58368C10.5879 1.50896 10.4318 1.46756 10.2724 1.46266L10.2399 2.50433ZM17.1999 8.761C16.7563 8.89245 16.296 8.95897 15.8333 8.9585V11.0418C16.4965 11.0422 17.1564 10.9467 17.7924 10.7585L17.1999 8.761ZM15.8333 8.9585C14.5624 8.9585 13.3436 8.45366 12.445 7.55505C11.5464 6.65644 11.0416 5.43766 11.0416 4.16683H8.95825C8.95825 5.99019 9.68258 7.73888 10.9719 9.02819C12.2612 10.3175 14.0099 11.0418 15.8333 11.0418V8.9585ZM11.0416 4.16683C11.0416 3.69016 11.1108 3.23183 11.2391 2.80016L9.24159 2.2085C9.05324 2.84421 8.95781 3.50381 8.95825 4.16683H11.0416ZM9.99992 3.54183C10.0691 3.54183 10.1383 3.54266 10.2083 3.54516L10.2733 1.46266C10.1822 1.45984 10.091 1.45845 9.99992 1.4585V3.54183ZM3.54159 10.0002C3.54159 8.28731 4.22201 6.64461 5.43319 5.43343C6.64436 4.22226 8.28706 3.54183 9.99992 3.54183V1.4585C5.28325 1.4585 1.45825 5.2835 1.45825 10.0002H3.54159ZM9.99992 16.4585C8.28706 16.4585 6.64436 15.7781 5.43319 14.5669C4.22201 13.3557 3.54159 11.713 3.54159 10.0002H1.45825C1.45825 14.7168 5.28325 18.5418 9.99992 18.5418V16.4585ZM16.4583 10.0002C16.4583 11.713 15.7778 13.3557 14.5667 14.5669C13.3555 15.7781 11.7128 16.4585 9.99992 16.4585V18.5418C14.7166 18.5418 18.5416 14.7168 18.5416 10.0002H16.4583ZM16.4549 9.79183C16.4574 9.86183 16.4583 9.931 16.4583 10.0002H18.5416C18.5416 9.9085 18.5399 9.81766 18.5374 9.72683L16.4549 9.79266V9.79183Z" fill="#000"/>
</svg>
